<svg xmlns="http://www.w3.org/2000/svg" viewBox="0 0 1000 1000" id="heart-key"><g data-name="Layer 10"><path fill="#df1929" d="M819.64,581.26c2.22,58-30.41,112.25-75.5,146.88-33.35,25.45-71.57,43-108.9,61.6-51.16,24.47-103,48.55-157.83,63.56-21.29,6.33-43.33,11.39-65.67,10.5H412c-44.44-.93-56.3-22.62-73.34-59.24C317.5,761.32,304.16,715,293.1,668.25c-15.22-71.51-16.68-167.31,24.31-230.51,11.5-17.18,23.29-34.91,39.58-47.95,16.64-12.54,36-22.8,56.66-26.47,23.48-2.81,48.29,4.9,65,21.85,15.24,15.08,22.75,35.69,30.76,55.11,7.52,21.17,16.4,42,21.77,63.83,25.1-24.34,80.82-48.8,115.9-50.09,43.27-3.65,89,3.85,125.16,29C802,506.69,819,543.43,819.64,581.26Z"></path><path fill="#ff747f" d="M267.24,504.53a1.89,1.89,0,0,1-2.9,2.26,34.73,34.73,0,0,0-9.29,20c-3.65,1.91-8.63,2.25-12.85,3.63-28.44,6.19-56,15.86-84.55,21.58-25.11,5-56.34,3.5-72.06-19.7-16.55-21-19.63-55.38,4.8-71.71,13.84-9.27,31.35-14.66,48-14-16.17-30.35-20.34-58.46,9.11-82.09,21.63-19.29,53.81-4.17,67.56,17.38,14.45,22.18,21.7,48,31.25,72.49C252.71,471.35,260,488,267.24,504.53Zm-14.78,19.68a1.37,1.37,0,0,0-.29.24A2.17,2.17,0,0,1,252.46,524.21Z"></path><path fill="#ffeee2" d="M762.66 311.5c1.48 16.84-1.11 34.12-6.39 50.14-8.16 19.31-17.73 38-27.35 56.55-5.58 9.51-11.65 18.72-19.44 26.59-3.88 3.73-5.77 10.87-12.13 10.23a134.41 134.41 0 00-17.38.17c-3.75-.18-10.63 2.34-11.3-3.16v.18a3.84 3.84 0 010-.48V452a3.73 3.73 0 012.68-3.48 186 186 0 0017.41-26.3c8.92-15.66 17.7-31.56 24.51-48.27 7-19.92 21-42.84 17.64-64.18-3.55-21.51-23.84-36.48-44.16-41.09-20.92-4.31-46.06 4.47-65 13.22-34.69 16.27-61.92 44.95-84.24 75.48-7.87 10.6-15.09 21.62-22.4 32.6a98.41 98.41 0 00-6.6 13.34c-1.47 4.5-5.1 13.1-10.41 7-3-4.93-6.12-9.89-10.17-14.06a3.54 3.54 0 01.08-6.49c.88-.14 1-1 1.35-1.7 4.66-9.39 12.32-17 18.74-25.18C520 347 534.5 333.47 547.93 319c12.64-12.35 25.25-24.79 39.21-35.67 11.73-8.89 24.43-16.55 37.29-23.72 27.43-14.22 60.54-13.13 88.93-2.22 9.45.63 15.22 3.88 22.94 10C750.58 277.94 761.94 293.22 762.66 311.5zM397.24 676.72c-5.63-1-10.28-5.17-14.71-8.56-6-4.25-3.53-9.24.17-14.06 3.74-5.28 8-10.19 11.19-15.85 1-2.25 3.29-5.16 2.09-7.59-2.33-2.2-5.83-4.14-9.11-3.62-5 2.67-7.78 8.44-11.53 12.6-3.55 4.14-6.31 12.88-13.18 10.81-9.41-4.18-14.66-12.23-8.2-21.68 3.94-7.42 8.62-14.43 12.16-22.06l-79.84-54.92L254.63 530c-2.37-.2-2-3.28-2.07-5 0-8.06 6.93-22.31 15.7-22.53l36.77 23C352.9 555.19 400.8 585.7 448.66 615c2.06 3.58-5.79 13.26-7.37 17.25-3.87 8.68-11.6.46-16.37-3 4.92 6.81-4.72 15-6.94 21.75C413.12 658.32 406.24 675.38 397.24 676.72zM138.32 533.46c-19.57.87-43.39-16.16-37-37.63 7.63-24.79 36.12-34.69 59.94-33.73-10.69-18.17-20.95-43.68-8.28-63.2 8.27-11.07 24-14.2 36.49-9.13C205 396.53 214.65 412 222 426.6c10 20.66 15.83 43 18.35 65.77 1.06 11.47 4 13.58-8.22 18.45-14.2 6.72-29.62 10.32-44.62 14.79C171.51 530.18 155.06 533.94 138.32 533.46z"></path><path fill="#301ca3" d="M482.42,628c-11.09.84-19.76,13.46-15.05,23.91.32,2.31,4.78,4.53,1.46,6.37-16.94,15.66-33.28,32-49.94,48l40.16,23.85c4.58-21,10.89-42,14.86-62.93,10.75-8.06,22.06-9.84,29.46-23.49C501.88,632.16,493.87,626.7,482.42,628Zm-23,106.71c-19.07-11.21-38-22.81-57.15-33.82a2,2,0,0,1,.54-3.41c4.09-4.34,8.55-8.29,13-12.29,10.77-10.69,22.16-20.8,32-32.42l-.09.12a1.92,1.92,0,0,1,1.17-.73c-1.13-17.6,1.18-41.72,20.21-48.82,9.41-2.81,20.94-3,29.48,2.38,16.2,12.3,16.33,33.57,2.29,47.66-5.9,7.71-16.52,10.38-23.38,16v-.12c-3.07,16.1-8.19,31.74-11.33,47.84-1.24,5-2.76,10-3.67,15.1C462.44,733.85,461.32,735.77,459.46,734.74Z"></path><path fill="#fff" d="M455.51,728l-36.62-21.75c17-16.18,33.49-33,50.86-48.7a1.89,1.89,0,0,0-.51-2.6c-5.89-6.69-2.92-17.92,3.76-23.22,8.41-6.47,25.6-5.36,28.68,6.25,3.76,6.3-1.14,10.13-5.28,14.6-6.18,6.73-15.84,8.85-22.5,14.59-4,21-10.27,41.92-14.85,62.93Z"></path><path fill="#ff9ea7" d="M378.55 400.17a6.86 6.86 0 01-5.63-7.8c1.88-7.22 12.86-9.18 18.83-12.27 8.31-3.09 13.14 9.4 4.89 12.69a98.26 98.26 0 00-12.36 5.63A7 7 0 01378.55 400.17zM434.12 385.19s.12 0 .11-.09zm-3.56 1.69a5.38 5.38 0 001.59-.45A7.08 7.08 0 01430.56 386.88zm59.71 61.21c-4.48-2-8.17-16.22-11.56-21.26-9.5-18.84-24.57-41.39-48.35-39.91l.2 0c-9 1.25-10.7-12.49-1.62-13.49A49.72 49.72 0 01458.88 381c13.42 8.86 22.89 22.51 30.35 36.52 3.66 7.2 7.14 14.5 10.22 22C501.76 444.89 495.55 450.74 490.27 448.09zM568.93 504.12c-4.86-1.33-6.5-8.12-2.66-11.46 2.85-2.24 6.55-3.11 9.82-4.58 22.44-8.62 45.68-15.71 69.64-18.39A202 202 0 01718 474c5.63 1.46 6.49 9.9 1.25 12.48a7.45 7.45 0 01-5.91.36 262.59 262.59 0 00-27.15-4.47 210.17 210.17 0 00-69.63 6.74c-10.4 2.74-20.63 6.07-30.7 9.82C580.19 500.2 574.85 505.08 568.93 504.12zM759.73 507.19a69.65 69.65 0 00-9.35-7 7.24 7.24 0 01-4.29-3.41c-2.9-5 2.12-11.41 7.64-9.82l-.57-.13c5.92 1.55 10.48 6.19 15.22 9.84C775.16 502.43 766.63 512.76 759.73 507.19zM789.12 571.55a7.39 7.39 0 01-2.54-5.13c-1.74-8.92-3.78-17.87-7.08-26.35-8.62-12.49 8.52-19.06 12.78-4.7a169.29 169.29 0 017.92 30.2C801.09 571.4 793.52 575.48 789.12 571.55zM512.61 615.48c-2.39-5.39-5.54-12.75 2.31-15.16 4.83-1.3 7.92 2.93 9.15 7 1.08 2.7 2.47 5.69 1.07 8.54C522.92 621.21 514.49 621 512.61 615.48zM509.76 659.87c-8.13-5.6 2.5-14.62 2.87-22.16.88-5.76.28-13.52 8.56-12.73 8.2 1.66 5.61 11.72 4.24 17.56C523.19 649.45 519.83 664.82 509.76 659.87zM425.31 849.49c-8.31-1.15-6.84-14.21 1.51-13.48h-.17c29.27-4.8 56.93-16.6 84.64-26.78 5.06-1.91 10.17-3.68 15.24-5.59 8.28-3.08 13.16 9.4 4.89 12.68-33 11.79-65.34 26.12-99.87 32.77h.08A21 21 0 01425.31 849.49zM431.33 849.12l-.57.1zM553.8 806.16c-8-.07-8.87-12.21-1-13.49 7.91-2.26 22.21-12.9 29.18-11.77 5.63 1.5 6.51 9.93 1.26 12.48C573.38 797.4 564.19 804 553.8 806.16zM598.92 776.88c.29-8.88 13.72-8.54 13.59.34C612.22 786.1 598.79 785.76 598.92 776.88z"></path><path fill="#301ca3" d="M667.32 454.08c-3.21-2 3.66-7.22 4.55-9.66 8.51-12.5 16.83-25.12 24.61-38.08l-.12.22a377.38 377.38 0 0021.22-41.16c0 .08-.07.16-.1.23.18-.42.35-.84.53-1.27l-.1.24c30.59-72.54-11.12-112-83-84C584.64 303.55 544.19 351.94 516 398.4l.13-.21a174.74 174.74 0 00-10.64 19.93 1.08 1.08 0 00.08-.19c-.21 2.73-4.51 3.91-4.53.44 4.9-12.25 12.35-23.32 19.17-34.57 25.25-38.05 56.42-73.67 95.63-97.78 73.29-42.09 143.47-9.82 105.94 79.82 0 0 0-.07 0-.11-10.18 24-23.63 46.46-38 68.12C681.09 436.82 670.66 456.78 667.32 454.08zM488.45 392.9a1 1 0 000-.39A1.72 1.72 0 01488.45 392.9z"></path><path fill="#301ca3" d="M702.87 454.24c-3.29-1.93 4.29-8.39 5.34-10.82 9.64-12.87 19.23-25.85 27.39-39.72l0 0 0 0c13-22.15 22.95-46.53 25.67-72.21l0 .26.12-1.15c0 .08 0 .17 0 .25 8.21-59.24-43.75-80.27-94.13-79.53h.27c-15.14.28-30 4.44-43.82 10.26l.24-.1c-11.77 5-22.52 12.09-32.75 19.67l.2-.15c-23.1 17-42.85 37.89-61.5 59.51-14.34 17-29.73 33.54-41.43 52.52l0-.12C470.23 403.12 521 344.45 523 342.3c28.16-32.53 58.66-65.39 98.28-83.86 39.12-18.18 99.22-14.5 129.89 17.92 14.48 14.55 16.14 36.26 14.2 55.64l0-.25c-3.26 31-16.71 60-33.75 85.85-7.06 10.68-14.84 21-22.48 31.27C707.28 450.67 706.13 455.56 702.87 454.24zM294.52 556.06c-4.78-6.33 10-20 9-27.42-5.78 4.38-7.51 12.43-13 17.22-2 2.31-7.18 4.67-8.11.26.34-7.06 4.58-13.32 6.85-19.89 2.71-6.7.29-6.66-3.79-1.79-4.23 4.85-7 11.19-12.37 14.95-3.53 2.45-7-1.15-6.05-4.88.89-8.58 6-15.86 8.46-23.95-7.64 4.34-12.35 11.59-15.52 19.55-4.71 9.42-13.59 3.88-12.39-5.06 1.45-10.21 8.31-20.89 18.26-24.5 1.72-.61 4.54.4 3.78 2.62-.84 2-3.14.48-4.6 1.69-7.71 4.61-13.85 13.63-13.68 22.78 3 10.83 7.68-6 10.11-8.92a37.76 37.76 0 0113.64-12.15c9-.59 1.14 11.62-.29 15.61-1.88 4.5-4.06 9.21-4.05 14.17 7.26-4.89 9.54-15.48 17.89-19.11 13.58-1.77-2.12 21.3-2.39 27.26 6.07-4.41 8.11-12.26 13.23-17.52 2.19-2.66 7.13-3.35 7.7.95.69 8.3-6.49 14.82-9 22.34a61.47 61.47 0 003.57-5.06l-.13.21a83 83 0 004.36-8c1.69-2.17 3-10.85 6.47-9.32 2.82 1.82-2.67 8.66-3.29 11.36C306.49 544 300.78 557.78 294.52 556.06zM364.8 652.71c-5.84-2.26-11.7-6.21-15.35-11.32a1.88 1.88 0 013.43-1.42 37.33 37.33 0 006.82 5.85l-.2-.13c7.27 5.59 8.67 3.26 13.21-3.5h0c6-9.37 11.93-26.85 24.24-13.1l-.09-.08.19.16-.08-.07c2.62 1.2 1 5.2-1.6 3.55-2.39-1.68-5.32-6-8.5-4.66C378.94 633.56 375.58 653.33 364.8 652.71zM396.8 676.93c-3 .86-23.24-11.34-18.69-14 4-2.33 16.84 17.7 24.1 7.18a227.45 227.45 0 0022.68-35.6c-.13-2.26-3.46-3.79-2.85-6.34 1.19-3.17 4.61-.72 6.27.7 2.58 1.22 6.72 7 9.27 5.25 4.12-5 5.78-11.66 8.86-17.33.27-2.65 4.42-2.09 3.74.57-3.11 6.41-5.24 13.7-9.79 19.25-3.72 4.55-8.38-.18-11.71-2.73 0 3.48-2.53 6.21-4.1 9.12a142.14 142.14 0 01-7.89 12.79C411.55 662.5 406.33 676.54 396.8 676.93z"></path><path fill="#301ca3" d="M364.22 608.47l-107-73.54c-1.92-1.41.33-4.5 2.27-3l78.94 54.26 28.05 19.28C368.41 606.89 366.16 610 364.22 608.47zM131.35 558c-37.69 0-72.11-42.19-57.44-78.69 9.2-18.63 29.13-29 48.81-33 3.09 0 20.33-5.92 17.85.43-1.06 1.45-3.12.52-4.64 1-7.71 1.27-15.43 2.62-22.88 5.06-15 4.48-29.42 14.52-36.13 29-10.27 27.9 9.87 58.46 35.86 68.93 15 5.51 31.69 4 46.91.22h0c22.58-6.51 44.17-16.44 67.38-20.7 3.67 0 23.61-6.53 23.62-2 0 2.77-3.58 2-5.41 2.44-9.12 1.56-18.26 3.22-27.24 5.44h0c-3.59 1-7.17 2-10.78 3l0 0C182.26 546.36 158.08 559.33 131.35 558z"></path><path fill="#301ca3" d="M134 534.5c-26.36-3.41-49.86-33.74-27.83-56.41 14.58-14 36.42-16.34 55.6-18.95h0c2.54-.14 2.58 3.86 0 3.76A150.16 150.16 0 00142 466.09c-9.62 2-19.52 4.58-27.78 10.1-22.06 14.71-13.32 41.68 8.63 51 21.53 9 45.87 2.24 67.93-1.53h0a231.11 231.11 0 0030.41-9.35l-.22.08c22.68-7.53 19.8-10 15.57-31.71l0 .12c-3.6-13.34-6.19-27-10.67-40.05 3.62-13.51 11.52 31.05 12.87 33.4 1.85 10.48 7.69 23 1.77 32.94-5.73 5-13.73 6.8-20.68 9.67C192.56 530.43 163 537 134 534.5zM503.15 559.8c14.26-2.48 17.81-19.52 20.39-31.54l0 .18c1.38-7.05 2.62-14.19 2.66-21.39-13.26 10-31.58 21.37-32 39.8C494.93 552.05 496.29 560.33 503.15 559.8zm-3.3 3.4c-8.38-2.47-10-13.82-9.15-21.33a2.21 2.21 0 01-.05.25c2.8-13.58 13.92-23.5 24.45-31.61 10.59-8.48 12.64-4.92 9.11-19.63v0c-3.88-21-11.6-40.91-20.83-60.08-4.6-10.44-9.12-21-15.65-30.43l.14.19c-.86-1.67-2.75-3-2.84-5a1.88 1.88 0 013.34-.9c2.44 3.51 4.84 7.05 7 10.75 5.61 9.69 9.66 20.16 14.39 30.28a221.93 221.93 0 0119.82 64.38c21.24-14 43.21-27.42 67.55-35.37l-.14 0c30.3-11 63.13-16 95.13-10.71l-.23 0c2.39 0 2.42 3.8 0 3.75-5.22-.59-10.4-1.52-15.66-1.8-26.59-1.73-53.1 3.36-78.07 12.34l.23-.08a226.43 226.43 0 00-29 12.26l0 0c-12.55 6.44-24.4 14.18-36.27 21.77h0c-4.63 1.68-2.81 6.14-3.4 10.1a142 142 0 01-2.53 16.81v0C524.59 543.26 517.93 565.47 499.85 563.2z"></path><path fill="#df1929" d="M506.23 192.34c-10.84-6.84-19.08-19.59-19.06-32.66 1.41-14.71 13.88-11.24 19.45-.84 2.93-4.5 6-9.3 10.68-12.17 5.36-3.66 11.28 1.39 10.15 7.35C527 163.76 519.68 195.87 506.23 192.34zM343.31 302.46c-11.6-3.79-20.43-26.83-20.49-38.33-.69-11.54 13.74-18.58 19.13-6.5 2.43-6.12 10.91-18.44 17-9.25 2.7 6.5.35 13.92-.15 20.67C356.49 279.19 357.83 302.71 343.31 302.46zM855.29 499.76c-9.71-2-3.43-32.26-.27-38.81 7.32-16.21 22.6-10.67 18 6.59 7.09-4.52 28.9-8.29 24.4 6.06-2.43 4.07-6.71 6.63-10.36 9.5C877.64 488.84 866.94 501.21 855.29 499.76z"></path><path fill="#301ca3" d="M639 168.57c-.22-3.87-1.18-7.81-1.13-11.63 3.51-4.19 4.12 3 4.24 5.44s1.12 4.85.25 7A1.89 1.89 0 01639 168.57zM624 182.3c-4.68-3 2.53-4.39 4.84-5 2.31-.17 6.18-3 7.57-.14.47 3.42-4.73 2.73-6.87 3.84C627.73 181.38 625.91 182.39 624 182.3zM648.28 177.09a1.9 1.9 0 01-1.67-2.06c.24-2 2.63-1.64 4.1-2 2.65.18 8.34-3 9.44.32C660.84 176.62 650.72 176.44 648.28 177.09zM642 194.11c.2-2.83-3.42-14.89-.48-15.27 3.79-.51 2.55 5.78 3.34 8.16-.25 2.62 2.55 7.39-.7 8.65A1.88 1.88 0 01642 194.11zM817.31 227.37c-.23-3.87-1.19-7.82-1.14-11.64 3.51-4.19 4.12 3 4.25 5.44 0 2.28 1.11 4.86.25 7A1.89 1.89 0 01817.31 227.37zM802.33 241.09c-4.67-3 2.53-4.39 4.84-5 2.31-.17 6.19-3 7.57-.14.47 3.41-4.73 2.73-6.87 3.83C806 240.17 804.21 241.19 802.33 241.09zM826.59 235.88a1.88 1.88 0 01-1.67-2.06c.24-2 2.62-1.63 4.1-2 2.64.19 8.33-3 9.44.32C839.15 235.41 829 235.23 826.59 235.88zM820.27 252.91c.2-2.83-3.42-14.89-.48-15.28 3.78-.5 2.54 5.79 3.33 8.16-.24 2.63 2.56 7.39-.69 8.66A1.89 1.89 0 01820.27 252.91zM161.59 216.58c-.22-3.87-1.18-7.82-1.14-11.64 3.52-4.19 4.13 3 4.25 5.44s1.12 4.86.25 7A1.89 1.89 0 01161.59 216.58zM146.62 230.31c-4.68-3 2.53-4.39 4.84-5 2.31-.17 6.18-3 7.57-.14.47 3.41-4.73 2.73-6.87 3.84C150.32 229.38 148.5 230.4 146.62 230.31zM170.87 225.09A1.9 1.9 0 01169.2 223c.25-2 2.63-1.63 4.1-2 2.65.19 8.34-3 9.44.32C183.43 224.63 173.31 224.45 170.87 225.09zM164.55 242.12c.21-2.83-3.42-14.89-.48-15.27 3.79-.51 2.55 5.78 3.34 8.15-.24 2.63 2.56 7.4-.7 8.66A1.9 1.9 0 01164.55 242.12zM876.72 729.81c-.23-3.87-1.19-7.81-1.14-11.63 3.51-4.19 4.12 3 4.24 5.44s1.12 4.85.26 7A1.89 1.89 0 01876.72 729.81zM861.74 743.54c-4.67-3 2.54-4.39 4.84-5 2.31-.17 6.19-3 7.58-.14.47 3.42-4.74 2.73-6.87 3.84C865.45 742.62 863.63 743.64 861.74 743.54zM886 738.33a1.89 1.89 0 01-1.67-2.06c.24-2 2.63-1.63 4.1-2 2.64.18 8.33-3 9.44.32C898.56 737.86 888.44 737.68 886 738.33zM879.68 755.35c.2-2.82-3.42-14.88-.48-15.27 3.78-.51 2.54 5.78 3.34 8.16-.25 2.62 2.55 7.39-.7 8.66A1.89 1.89 0 01879.68 755.35zM244 154.08c-2-4.58-4.47-9.28-4.37-14.39.36-2.64-.34-10.33 4.07-8.64 1.81 1.15-1.49 8.37 0 11.95a61.65 61.65 0 003.71 9.53C248.47 154.72 245 156.31 244 154.08zM252.94 175c-.4-2-2-4.48-.69-6.33 1.88-1.71 3.5.54 3.47 2.45l-.05-.24a30.89 30.89 0 00.86 3C257.26 176.17 253.66 177.3 252.94 175zM272.24 200.72c-3.15-2.12-7.1-3.95-8.78-7.55-.76-2.27 2.86-3.43 3.57-1.14l-.06-.16c1.77 3.11 6 3.92 8 6.66A1.89 1.89 0 01272.24 200.72zM293.14 208.83c-2.13-.13-2.2-3.45-.1-3.71h0a97.29 97.29 0 0012.37-5.68l-.11.05c1.93-.67 4.55-3.78 6.33-1.46a1.89 1.89 0 01-.62 2.58C305.27 203.67 299.47 207.26 293.14 208.83zM327.68 188.3a2 2 0 01-.64-3.18l-.06.09c.84-2.91 5.07-2.28 3.89.82C330.19 187.22 329.34 189 327.68 188.3zM337 173.54c-1.94-1-.68-4.47 1.49-3.91C341.2 170.31 339.48 174.92 337 173.54zM342.09 156.28c-1.48-1.83 1.58-5.1 3.4-3.34S343.9 158.49 342.09 156.28zM360.85 151.92a8.27 8.27 0 01-1.29-.82l.07.06c-2.1-1.51.5-4.64 2.39-2.89C364.77 149 363.49 153.19 360.85 151.92zM377.3 179.26c-1.83-5.49-4.06-10.83-6.36-16.12h0c-1.07-2 2.08-3.84 3.27-1.83 1.2 2.59 2.23 5.28 3.38 7.9.49 2.66 5.46 9.91 2.05 11.29A1.9 1.9 0 01377.3 179.26zM384.38 216.89c-.59-4.18-8.51-26.63-2.67-27 2.46.37 1.37 3.25 1.75 4.95a101.87 101.87 0 002.07 11.37c0 2.83 4.42 10.72 1.19 11.91A1.89 1.89 0 01384.38 216.89zM390.82 230.91c-1.34-1.41-4.16-4.41-1.54-5.91 2.28-.94 2.74 2.11 4.13 3.19C395.18 229.85 392.56 232.6 390.82 230.91zM418.17 243.49c-2.57 0-10-.89-7.17-4.77 1.16-1 2.26.07 3.36.49 3.74 1 7.69.41 11.5.36a1.9 1.9 0 011.94 1.82C427.32 244.94 420.78 243 418.17 243.49zM450.27 241.33a1.88 1.88 0 012-3 22.89 22.89 0 004.57-2.2c2.06-1.29 4.06 1.94 2 3.19C456.32 240.42 452.82 243.6 450.27 241.33zM481.37 227.21c.11 0 .23.08.34.12-4.06-1.48 1.56-6.21 3.56-3.87C486.89 225.57 483.3 228 481.37 227.21zM496.27 214.18c.61-1.68 1.82-5.33 4.21-4.2C503.7 211.94 497.45 219.39 496.27 214.18zM505.65 199.75c-.1-2.42 3.69-2.55 3.75-.12S505.71 202.18 505.65 199.75zM885.35 460.23c-2.36-.34-2-3.17-.17-4.07C889.15 454.21 889 460.25 885.35 460.23zM900.72 447.5c-4.09-.74.73-7.32 3.16-5.08C905.62 444.2 902.62 447.4 900.72 447.5zM911.18 432.46c-2.13-.31-1.93-2.7-.66-3.9a59.15 59.15 0 004-8.11c.71-2.1 2.22-7.44 4.87-3.95C919.71 419.15 914.15 432.61 911.18 432.46zM918.72 401a42.09 42.09 0 00-3.59-11.7c-1-2.2 2.43-3.77 3.41-1.55 1 3 6 12.59 2.52 14.5A1.9 1.9 0 01918.72 401zM907.4 380.35c-8.66-3.41-17.74-5.49-26.84-7.36-2-.73-6.25 0-5.83-3.14.15-3.77 18.71 2.72 21.94 3 2.52 1.09 13.83 2.94 13 6.12A1.9 1.9 0 01907.4 380.35zM833.61 377.89c-1.24-4.3 21.09-7.3 24.74-8.08 5.75-1.71 7.34 2.84 3.44 3.46-4.65.23-9.26 1.33-13.82 2.25C844.94 375.52 834.17 381.36 833.61 377.89zM806.59 397.32c-2.25-3.42 9.95-9.67 12.51-11.5 2-1.3 4.06 2 2 3.2a76.42 76.42 0 00-6.63 4.21C811.91 394.27 809.45 399.66 806.59 397.32zM792.05 414.66c-2.24-2 1.06-4 2.16-5.57l-.06.07c1.46-1.86 4.4.43 3 2.3-.83 1-1.68 1.89-2.5 2.86l.11-.13A1.9 1.9 0 01792.05 414.66zM777.07 439.11c-2.36-1.29 2.19-7.75 4.2-6.27 1.71 1 .76 2.89-.29 4C780.09 438.14 779 440.4 777.07 439.11zM767.91 461.39c-2.44-1-.6-6.28 2-5.28S770.48 462.39 767.91 461.39zM340.11 318.78c-1.76-.44-1.47-2.31-1.08-3.66.3-1.6 0-4.38 2.37-4.21C344.4 310.88 343 319.84 340.11 318.78zM310.24 339.88c-.4-3.68 10.39-2.72 13-5.75l-.2.14c1.76-2.33 5.39.1 3.16 2.32C324.53 338.47 310.62 343.81 310.24 339.88zM286.94 344.71c-3.19-.29-19.38-3.23-17.58-7.59a1.9 1.9 0 012.55-.74c7.07 3.47 15.26 5.74 23.15 4.56a1.89 1.89 0 012.34 1.25C297.63 346.65 289.76 344.67 286.94 344.71zM262.61 331.18c-3.22-.15-5.31-8.38-1.65-9A1.88 1.88 0 01262.9 324a7.68 7.68 0 00.52 3.52A1.88 1.88 0 01262.61 331.18zM267.33 310.85a1.9 1.9 0 01-.53-2.42l-.1.22h0l0 .11a2.09 2.09 0 01.17-.37l0 0c1.87-3.4 7.14-1.13 3.69 1.76C269.54 310.8 268.48 311.75 267.33 310.85zM281 311.53a1.91 1.91 0 01-1-.91h0c-.51-2.05-3.66-2.33-3.24-4.58C279.08 300.67 287.67 312.2 281 311.53zM280.85 335.94c-3-2.4 2.76-6.46 2.59-9.63-.45-4.13 3.36-5.54 3.93-1.85C287.43 327.24 284.53 337.35 280.85 335.94zM260.66 387.87c-5.63-1.13 2-26.94 3.55-31.34.92-2.6 6.26-14 9.48-11.89 2.47 2.51-2.64 5.63-3.54 8.08-2.75 4.36-3.72 9.55-5.15 14.44a60.46 60.46 0 00-2.39 15.64C262.39 384.56 263.25 387.73 260.66 387.87zM263.43 417.36c-1.72-2.57-1.54-6.21-2.49-9.17-.23-2.59-2.79-8.5 1.21-9a2 2 0 011.63 2.52 37.22 37.22 0 001.18 7.33C265.23 411.54 268.61 419.09 263.43 417.36zM266.61 427.66c-.92-1.48-2.52-4.15-.08-5 2-.61 2.42 1.81 3.27 3.06A1.88 1.88 0 01266.61 427.66zM281.53 448c-2.76-1.67.52-5.55 2.43-2.84C285.61 446.66 283.3 449.35 281.53 448z"></path><path fill="#df1929" d="M707.21,866c-10.26-3.89-33.68-26.47-36.14-37.41-2.9-13,16.16-12.68,22.3-5.35,4.66-8.33,22.85-33.65,30-15.55,1.75,10.5,2.35,21.39.24,31.88C721.44,847.46,718.26,867.82,707.21,866Z"></path><path fill="#301ca3" d="M718.81 880.86c-1.67-1.72-3.89-3.67-3.9-6.24A1.89 1.89 0 01717 873c1.95.27 1.64 2.77 3.06 3.8C722.91 878.55 722.33 882.72 718.81 880.86zM737.43 885.46a1 1 0 00-.21-.38A1.41 1.41 0 01737.43 885.46zm1.52 4.33c-7.39-1.19-5.47-7.59-1.73-4.72l0 0c2.46 1.88 5.67 1 8.48.66 2.39-.41 3 3.33.62 3.7S741.38 890.28 739 889.79zM760.24 886.29c-1.51-1.13-.56-3.2 1.08-3.55h0l.07 0h0l.2-.11-.08 0a71.49 71.49 0 0013-9.06c11-1.11-10.06 12.4-12.52 13l.23-.09A1.91 1.91 0 01760.24 886.29zM785.18 866.89a1.9 1.9 0 01-.47-2.51l-.06.09c.63-1 1.32-2 2-3.06h0c2.49-3.88 3.37-8.5 4.71-12.85a1.9 1.9 0 012.27-1.37c3.82.51-2.53 14.3-3.9 16.36l.09-.16C788.61 864.84 787.61 868.41 785.18 866.89zM791.36 837.23c-.66-3.19-8.42-20.4-4.58-21.13 3.46-1 3.59 8.35 5 10.72.94 3.15 2.07 6.22 3.17 9.31C795.67 838.43 792.07 839.56 791.36 837.23zM783.45 805c-2.43-3.24-6.75-34.41-1.29-34.1 3.2.85.86 5.32 1.28 7.69a72.48 72.48 0 00.19 8.07c.54 4.67 1.18 9.33 2.06 14 .16 1.59 2 3.3.4 4.67A1.9 1.9 0 01783.45 805zM790.08 757c-6.42-3.23 8.64-14.56 11.43-17.18 1.86-1.54 4.26 1.39 2.36 2.92-3.94 3.44-8.26 6.65-11.08 11.14C792 755.06 792 757.24 790.08 757zM813.21 735c-1.67-3.32 4.16-4.77 5.89-6.87 2.18-1.72 4.29-3.54 6.38-5.37a1.9 1.9 0 012.64.28c1.79 3-4.93 5.91-6.66 8C819.05 732.12 815.86 737.22 813.21 735zM601.16 840.9c-8.88.72-7.53 14.66 1.31 13.66C611.34 853.84 610 839.93 601.16 840.9zm-3.29 16.69c-12.9-5.49-5.1-24.68 8-19.71C618.54 843.5 610.89 862.46 597.87 857.59z"></path><path fill="#301ca3" d="M598.5,857.81a10.71,10.71,0,0,1-7.16-11.95c.24-2.41,4-2,3.73.39a7,7,0,0,0,6.47,8.34c2,.4,4.59-2.19,5.87.23C608.15,858.93,601.11,858.63,598.5,857.81Z"></path><path fill="#301ca3" d="M609.72,852.22c-3-1,.43-5.78-2.33-8.47-7.2-7.82-10.82,2.26-13.65.19-2.77-3.6,4.48-6.68,7.43-6.79,7.13-.64,13,6.85,10.84,13.63h0L612,851A1.88,1.88,0,0,1,609.72,852.22Z"></path><path fill="#301ca3" d="M597.77 857.54a10.71 10.71 0 01-6.5-11.15c.24-2.41 4-2 3.73.39a6.91 6.91 0 0011.83 5.71C614.31 850.83 606.9 861.42 597.77 857.54zM421.14 92.71c-8.88.84-7.3 14.79 1.54 13.63C431.51 105.46 429.94 91.59 421.14 92.71zm-3.25 16.64c-13.12-5.67-4.56-25.24 8.5-19.44C438.64 95.65 430.42 114.43 417.89 109.35zM465 302.72c-8.81.94-7.17 14.78 1.61 13.63C475.5 315.47 473.85 301.51 465 302.72zm-2.56 16.87c-13.34-4.8-6.21-24.75 7.14-20C482.31 304.47 475.39 323.89 462.44 319.59z"></path><path fill="#301ca3" d="M471.65 305.79a8.08 8.08 0 00-3.18-2.64l0 0c-2.37-1.19-.16-4.74 2-3.2 1.85 1.1 5.94 3.66 3.78 6A1.89 1.89 0 01471.65 305.79zM729.38 199.11c-8.85.88-7.24 14.78 1.58 13.62C739.82 211.85 738.2 197.93 729.38 199.11zm-7.1 13.9c-9.29-10.75 6.77-24.63 16.05-13.88C746.9 209.79 731.61 223 722.28 213zM796.86 327.89c-9 .66-7.55 14.84 1.41 13.64C807 340.64 805.56 327 796.86 327.89zm-4.18 16.31c-12-6.05-3.36-24.59 9-19.22C814.69 331 805.66 350.34 792.68 344.2z"></path><path fill="#301ca3" d="M797.34,343.72c-.4-2.81,3.56-2.24,4.88-4,1.77-1.67,4.35,1.22,2.5,2.78h0C803,343.9,798.6,347,797.34,343.72Z"></path><path fill="#301ca3" d="M797.36 343.72c0-4.31 8.77-1.19 6.56-12.1a1.9 1.9 0 011.94-1.52c3.47 1.11 2.25 6.77 1.09 9.35S799.41 347.8 797.36 343.72zM876.67 622.94c-8.27 1-7.22 13.94 1.1 13.65C887.32 636.32 886.14 621.66 876.67 622.94zm-2.57 16.78c-13.17-5-5.9-24.67 7.3-19.92C894.26 624.84 887.19 644.16 874.1 639.72z"></path><path fill="#df1929" d="M244.06,800.77c-12.56-2.51-22.65-12.46-29-23.19-2.31-5-7.3-9.92-6.49-15.74,4.41-10.54,17.47-2.54,23.8,1.9.71-8.6,2.1-18.24,7.74-25.09,7.77-7.22,14.15,3.14,14.12,10.66C254.87,758.05,257.21,802.73,244.06,800.77Z"></path><path fill="#301ca3" d="M182.73 906.44c-.12-2.12 2.23-2.07 3.75-2.18 1.28-.45 3-.4 3.32 1.21C190.58 908.38 182.78 909.41 182.73 906.44zM210.55 896.62a1.89 1.89 0 01-1.08-3.55c1.18-1 2.12-3.28 4-2.08 2.31 1.83-.95 4.91-2.81 5.62h0l-.23 0zM215.27 877.31c-.75-8.76-2-17.81-6.33-25.61-.85-2.61-6.18-5.93-3.6-8.51 4.34-2.09 10.74 14.77 11.31 18.31.3 3.11 4.51 16.77.82 17.52A1.89 1.89 0 01215.27 877.31zM185.25 842.21c-6.06-3 5.07-6.8 7.88-6.54 2.41-.2 2.69 3.57.26 3.74C190.31 839.24 187.91 841.33 185.25 842.21zM177.68 864.13c-.64-2.72-2.52-12 2.08-11.51 2.65 1.34 0 5.67 1 8.18 0 1.18.86 2.38.35 3.53A1.89 1.89 0 01177.68 864.13zM199.08 879.54c-2.53-.33-9.34-3.48-4.82-5.92 2 0 3.41 2.1 5.56 2.24C202.21 876.31 201.44 880.08 199.08 879.54zM221.81 879.8a1.89 1.89 0 01-1.47-2.2c.47-2.11 2.95-1.27 4.46-1.87 2.28-.84 3.56 2.77 1.25 3.53A12 12 0 01221.81 879.8zM243.31 868.27c-1.23-2.17 2.51-4.3 2.91-6.73 1-2.19 4.45-.52 3.37 1.66S246.27 871.2 243.31 868.27zM253 847c-2.2-4.53 1.68-7.41 3.09-3.52a11.73 11.73 0 00.54 2.62A1.91 1.91 0 01253 847zM253.72 827c-2.77-2.42-2.49-7.92-4-11.34-.55-2.36 3.2-3.16 3.67-.77.66 3.7 2.7 7.48 2.59 11.16l.08-.2A1.89 1.89 0 01253.72 827zM161.16 904.36c-3.39-1-24.3-6.4-22.31-10.48 2.06-2.8 5.57 1.37 8.1 1.8 5.28 2.05 10.61 4.19 16.2 5.23a2.07 2.07 0 012.19.76C166.8 904.45 163.14 905.17 161.16 904.36zM114.32 871.08c-1.8-1.34-7.22-5.61-4.57-7.85 2.9-1.43 4 3.33 6.17 4.49l0 0C117.81 868.73 116.36 871.86 114.32 871.08zM94.87 834.35c-2.41-.72-4.18-7.47.07-6.14C96.63 829.52 98.61 834.63 94.87 834.35zM112.27 611.52c.15-3.87-.42-7.9 0-11.69 3.91-3.83 3.81 3.42 3.7 5.83s.64 4.94-.43 7A1.89 1.89 0 01112.27 611.52zM96 623.72c-4.36-3.44 2.94-4.12 5.3-4.49 2.32 0 6.45-2.42 7.55.6.13 3.44-5 2.25-7.21 3.15C99.8 623.16 97.89 624 96 623.72zM120.67 620.9a1.9 1.9 0 01-1.46-2.21c.9-2.58 4.63-1.23 6.75-1.78 1.63-.1 3.27-.21 4.9-.35 2.41-.19 2.68 3.59.25 3.74C127.64 620.51 124.14 621 120.67 620.9zM112.72 637.23c.48-2.8-2-15.15 1-15.25 3.82-.13 2 6 2.53 8.45-.5 2.58 1.82 7.6-1.54 8.54A1.89 1.89 0 01112.72 637.23zM224 641.47c-8.88 0-8.63 14 .24 13.72C233.18 655.19 232.93 641.16 224 641.47zm-6.66 15c-9-7.34-.47-22.24 10.4-18.12C243 644.64 230.47 666.42 217.36 656.47z"></path></g></svg>