<?xml version="1.0" encoding="UTF-8"?>
<svg xmlns="http://www.w3.org/2000/svg" id="a" width="865.76" height="682.89" viewBox="0 0 865.76 682.89">
  <path d="M259.34,606.05c-.78,10.59-11.81,11.61-11.81,11.61-11.64,2.33-17.59-8-17.59-8-.41-1.16-.57-2.39-.46-3.62,.2-9.16,6.43-28.93,6.43-28.93,9.81-9.32,18.72-3.38,18.72-3.38,4.51,3.89,4.51,27.91,4.51,27.91,.25,1.46,.31,2.94,.2,4.41Z" fill="#fbe493" stroke="#002346" stroke-miterlimit="10"></path>
  <path d="M235.9,565.5s-3.61,7.48,0,11.61c0,0,8.78-8.78,18.73-3.36v-8.25c-.18-2.2-1.82-4.01-4-4.4l-14.73,4.4Z" fill="#e5e6e7" stroke="#002346" stroke-miterlimit="10"></path>
  <path d="M314.77,462.89v25.69c-1.57,17.31-11.3,22.62-16.28,24.21-1.99,.64-4.15,.7-6.1-.05-3.59-1.37-4.74-4.32-4.76-7.49,.13-3.1,.83-6.16,2.08-9,.77-1.91,1.23-3.94,1.34-6l1.29-22.69,10-16.73c3.64-1.43,6.21-1.1,8,.13,4.66,3.11,4.43,11.93,4.43,11.93Z" fill="#fbe493" stroke="#002346" stroke-miterlimit="10"></path>
  <path d="M317.61,489.81c-2.39,21.57-15.27,27.21-20.85,28.65-1.87,.55-3.87,.41-5.65-.38-5.93-2.94-3.76-11.76-3.48-12.79,0,3.2,1.16,6.14,4.76,7.5,1.96,.74,4.12,.68,6.11,.04,4.98-1.59,14.71-6.9,16.27-24.21v-25.73s.22-8.82-4.42-11.93h0c11.1,.11,7.26,38.85,7.26,38.85Z" fill="#fff" stroke="#002346" stroke-miterlimit="10"></path>
  <path d="M208.41,390.2s-1.19,11.16,6.78,31.08c0,0,6.3,22.6,5.31,42.07-.07,1.29-.22,2.58-.39,3.86-.88,6.54-3.49,30.72,2.65,52.87l13.14,45.42s6,4.61,12.21,.78c1.63-1.04,2.58-2.86,2.5-4.79-.23-6.29-.01-12.58,.64-18.84,.71-5.36,1.01-10.77,.91-16.18-.31-13-1.27-34.78-4.19-46.19-.39-1.52-.18-3.13,.59-4.49,3-5.24,9.55-23.58,3.75-79.52,0,0-18.23-10.24-43.9-6.07Z" fill="#f1b2c0" stroke="#002346" stroke-miterlimit="10"></path>
  <path d="M318.66,397.21c-11.4-2.52-24.6,1.76-24.6,1.76-4.93,3.03-10.41,5.05-16.13,5.92-8.97,1.19-15.07-1.84-18.14-3.99-3.57-2.5-7.34-4.73-11.41-6.31-2-.78-4.03-1.45-6.1-2.03-11.03-3-22.53-3.8-33.87-2.36-23.3,6.94-36.57-1.52-42.45-7.31-1.94-1.88-1.98-4.98-.1-6.91,.12-.12,.24-.24,.37-.35,10.52-8.71,23.86-29.87,23.86-31.63,11.55-20.74,27.19-42.5,27.19-42.5,3,1.14,7.3,1.57,13.65,.63,0,0,12.57,1.37,25.38,.51,0,0,27.81,4.52,38,2.84,6.23,9.33,15.44,43.42,20,61.48,1.46,5.86,2.45,11.83,2.95,17.85,.26,3.67,1.23,7.26,2.85,10.57,.33,.63,.08,1.4-.55,1.73-.28,.14-.6,.18-.9,.1Z" fill="#f69074" stroke="#002346" stroke-miterlimit="10"></path>
  <path d="M299.22,447.65c1,18.19-14.36,15-14.36,15l-37.33-15.64c-21.72-11-6.55-51.14-5.25-54.47,2.07,.58,4.11,1.25,6.11,2.03,4.06,1.58,7.83,3.81,11.4,6.31,3.07,2.15,9.17,5.18,18.15,3.99l1-.14-8.73,15.78c7.66-1,15,9.56,15,9.56l14.02,17.58Z" fill="#f1b2c0" stroke="#002346" stroke-miterlimit="10"></path>
  <path d="M303.65,465.81c-6.42,8.29-18.79-3.17-18.79-3.17,0,0,15.32,3.17,14.36-15,12.65,11.45,4.43,18.17,4.43,18.17Z" fill="#e5e6e7" stroke="#002346" stroke-miterlimit="10"></path>
  <path d="M570.42,404.94s-.08-1.84,3.42-6.45c1.96-3.35,3.18-7.08,3.57-10.94l21.59,5.45s-4.5,14.82-4.5,24.5c0,0-20.16-1.27-24.08-12.56Z" fill="#f1b2c0" stroke="#002346" stroke-miterlimit="10"></path>
  <path d="M563.14,226.37s-.31-3.09-6.54-2.93c0,0-17-.12-13.7-10.57,0,0-3.12-3.14,.77-5.47,0,0-2.18-1.25-.46-4.05,0,0-16.36-1.4-13.86-5.14,0,0,5.26-4.41,24.88,2.12,1.19,.4,2.11-1.03,1.27-1.97-.23-.25-.48-.51-.78-.77-1.01-.9-1.96-1.87-2.7-3-1.21-1.87-2.42-4.52-.88-6.04,.47-.44,1.19-.49,1.72-.12l8.82,5.85c4.32,2.76,7.38,7.1,8.53,12.09,.1,.48,.19,1,.25,1.48,0,0,1.15,4,3.38,5.3,0,0,.52,13.49-10.7,13.21Z" fill="#f1b2c0" stroke="#002346" stroke-miterlimit="10"></path>
  <path d="M544,219.37s10.86-.29,9.15-4.65c0,0,6.69,.31,3.89-5.14,0,0,3.27-2.65-.16-5.3,0,0-9.19-3.74-13.7-.93,0,0-2,2.8,.46,4.05,0,0-4,1.75-.77,5.47-.82,2.21-.39,4.7,1.13,6.5Z" fill="none" stroke="#002346" stroke-linecap="round" stroke-linejoin="round"></path>
  <path d="M543.67,207.4s9.19-.16,13.4,2.18" fill="none" stroke="#002346" stroke-linecap="round" stroke-linejoin="round"></path>
  <path d="M542.9,212.87s7-.18,10.28,1.85" fill="none" stroke="#002346" stroke-linecap="round" stroke-linejoin="round"></path>
  <path d="M679.43,609.48c.28,1.01,.41,2.06,.28,3.09-.47,3.88-3.62,5.11-6.52,5.41h-.1c-2.39,.23-4.79-.32-6.84-1.57-6.26-3.84-8.83,.53-8.83,.53l-1.88,1.76c-1.42,1.36-3.18,2.33-5.09,2.8-1.16,.27-2.37,.33-3.55,.15-8.69-1.25-6.66-12.75-6.66-12.75l35.25-6.4c2.15,1.43,3.4,5.04,3.93,6.98Z" fill="#fff" stroke="#002346" stroke-miterlimit="10"></path>
  <path d="M634.9,549.32s.56,6.75-.91,11.54c-.67,1.99-1.03,4.08-1.07,6.18,0,.94,.05,1.93,.15,2.83l1.93,4.22,22.75-4.87,3.58-14.81c-9.1,.55-18.19-1.2-26.43-5.09Z" fill="#f1b2c0" stroke="#002346" stroke-miterlimit="10"></path>
  <path d="M549.3,448.35s1.3,8.54,14.44,9.06c3.42,.31,6.8,.95,10.1,1.91,0,0,12.5,3.81,13.41-5.93l-16.83-9.05-21.12,4.01Z" fill="#002346" stroke="#002346" stroke-miterlimit="10"></path>
  <path d="M669.85,558.24c.75-17.88,4.7-101.38,2.36-119.77,0,0-2.42-11.05,.89-39.23,0,0,9.77-53.76,5.58-71.44l-28.32-18.5-23.28,44s5.53,49.75,4,82.12c-.59,10.22-.3,20.46,.84,30.62,1.09,9.62,1.28,19.31,.84,28.98-.69,15.03-3.16,44.48-6.2,56.46l43.29,6.76Z" fill="#fbe493" stroke="#002346" stroke-miterlimit="10"></path>
  <path d="M560.5,226.5s15,19,27.53,31.87c0,0,3.46,4.59,4.08,4.74s14.17-20.24,14.17-20.24l-13.72-19.78c-3.06-3.59-14.45-9.99-18.06-14.59l-14,18Z" fill="#f69074" stroke="#002346" stroke-miterlimit="10"></path>
  <path d="M568.4,176.9s-4.52,5,0,5.87c0,0-2,6.8,5.44,5.43,0,0-4.31,3.74,4.49,3.78h10.09s.72-12.6,6-18.35c0,0-10-6.88-19.06-4.63,0,0-27.89,4.06-25.34,8.58,.03,0,.48,2.92,18.38-.68Z" fill="#f1b2c0" stroke="#002346" stroke-miterlimit="10"></path>
  <path d="M244.47,623.61c-22.43,.27-15-17.56-15-17.56-.11,1.23,.05,2.46,.46,3.62,0,0,5.95,10.32,17.59,8,0,0,11-1,11.81-11.61h.07c6.2,16.75-14.93,17.55-14.93,17.55Z" fill="#fff" stroke="#002346" stroke-miterlimit="10"></path>
  <path d="M300.74,221.06s-1.2-5,4.55-6.7c0,0,.72,5.75,8.14,5.27,0,0,4.07,0,6.7-5.27,0,0,6.22,12.45,6.46,32.79,0,0,3.94,35.44-23.88,22.75,0,0,3.06-19.35-2-29.69,.88-2.45,1.28-5.05,1.17-7.66l-1.14-11.49Z" fill="#fbe493" stroke="#002346" stroke-miterlimit="10"></path>
  <path d="M235.4,190.74s3.74,9.78,0,15.38c0,0,3.37,2.45,6.41,5,3.25,2.93,7.34,4.76,11.69,5.23,1.6,0,3.2-.24,4.72-.73l5.61-10.44-25.83-15.21c-.81,.42-1.69,.68-2.6,.77Z" fill="#f1b2c0" stroke="#002346" stroke-miterlimit="10"></path>
  <path d="M223.18,306.72c-5.15-.2-9.62-3.63-11.14-8.56-.54-1.74-.87-3.41-.94-4.6-.1-1.57,.17-3.15,.8-4.6,2.65-6.32,5-18.42,5-18.42,2.88-12.11,.7-51.62,.25-59.15-.05-.77,.43-1.46,1.16-1.71,1.61-.55,3.28-.91,4.98-1.07,7.81,1,12.13-2.5,12.13-2.5l6.41,5c9.05,7.32,16.4,4.49,16.4,4.49,10.16-.32,20.19-2.45,29.6-6.3,2.51-.18,4.96,1.43,7.04,3.5,3.98,3.98,6.29,9.34,6.82,14.94,.36,3.83,.29,6.58,.07,8.51-.31,2.68-.04,5.4,.73,7.99,3.39,11.42-.25,30.12-2.26,38.67-.64,2.71-.69,5.52-.11,8.24,1.59,7.39-.2,12.72-1.46,15.3-.82,1.68-2.44,2.9-4.31,3.02-.01,0-.02,0-.04,0l-71.13-2.76Z" fill="#fbe493" stroke="#002346" stroke-miterlimit="10"></path>
  <path d="M305,214.36v-4.67c0-1.38-.13-2.75-.31-4.12-.21-1.63-.12-4.86,2.06-10.04,.97-3.77,1.67-7.61,2.08-11.49,0,0,0-6.86,3.19-6.06,0,0,3.52-1.41,1.47,14.45-.03,.21,.2,.37,.38,.25,2.97-1.92,19.78-12.6,24-10.56,0,0,3.1,1.75-11.38,9.41,1.31,1.17,1.6,3.1,.69,4.6,0,0,3.19,2.58,.8,5,0,0,1.58,4.52-1.22,7.46-.63,.66-1.45,1.11-2.32,1.41-1.5,.51-4.52,1.76-4.73,3.5-.12,.96-.33,1.91-.88,2.71-1.12,1.64-3.23,3.75-6.49,3.44,0-.02-6.22,.76-7.34-5.3Z" fill="#f1b2c0" stroke="#002346" stroke-miterlimit="10"></path>
  <path d="M326.78,191.54s-6.49-.32-9.36,3.51c0,0-2.56,3.19,.79,4.47,0,0-2.39,3.31,1.12,3.49,0,0-3.05,4,6.89,2.19,.67-.02,1.3,.02,1.94,.19" fill="none" stroke="#002346" stroke-linecap="round" stroke-linejoin="round"></path>
  <path d="M318.21,199.52s5.31-3.54,8.97-3.4" fill="none" stroke="#002346" stroke-linecap="round" stroke-linejoin="round"></path>
  <path d="M319.33,203.01s4.82-2,8.74-1.57" fill="none" stroke="#002346" stroke-linecap="round" stroke-linejoin="round"></path>
  <path d="M647.91,141.9c-15.26,25.7-29.56,21.45-29.56,21.45-.02-.86-.21-1.71-.55-2.5-.48-1.2-1.31-2.22-2.39-2.93h0c.61-.38,1.18-.82,1.72-1.3,8.33-7.39,7.55-22.29-1.14-35.34h0c1.77,.52,5-1.74,6.01-3.28,3.37,1.62,5.07,5.39,7.66,8.08,3.34,6.08,18.25,15.82,18.25,15.82Z" fill="#f1b2c0" stroke="#002346" stroke-miterlimit="10"></path>
  <path d="M591.76,218.71c-1.83-13.2-.19-36.56,26.04-57.9,.34,.79,.53,1.64,.55,2.5,0,0,14.3,4.25,29.56-21.45,0,.04,58.96,1.21,52.95,33.85l-13.41,30.22s-1.04,10.72-3.17,22.64c-2.61,14.59-3.46,29.42-2.81,44.22,.11,2.47,.16,4.93,.12,7.25-.09,5.31,0,10.61,.28,15.91,.3,5.66,.34,15.26-.57,31.31,0,0-9.09,3.87-30.7-9.07-3.74-2.17-8.07-3.12-12.37-2.7l-18.72-39.39s-28.47-4.13-43.84,21.83c0,0-5.4-19.4,2.28-25.44,.01,0,.03-.02,.04-.03,2.02-1.51,3.62-3.52,4.83-5.74,1.32-2.42,2.5-4.83,3.54-7.18,5.67-12.8,7.31-26.97,5.39-40.84Z" fill="#f69074" stroke="#002346" stroke-miterlimit="10"></path>
  <path d="M575.68,297.93s-.2,29.27,16.18,29.87c0,0-14.36,44.7-18.36,59.7,0,0,21,8,28.26,13.26,11.49-18.36,21.8-37.44,30.85-57.12,0,0,14.63-25.13,20.64-41.38,1.41-3.81,1.41-8-.08-11.78-2.83-7.19-10.87-16.98-33.67-16.98,0,0-28.76-2.24-43.82,24.43Z" fill="#fbe493" stroke="#002346" stroke-miterlimit="10"></path>
  <path d="M591.86,327.81s8.73-32.53,23.41-40.91" fill="none" stroke="#002346" stroke-linecap="round" stroke-linejoin="round"></path>
  <path d="M632.97,582.73c-2.72-5.53-6.05-15.02,4.94-12.21,0,0-5.66-18.51,9.19-14.62,0,0,10.2,1.54,11.06,11.49,0,0,4.43,.85,4.75,6.7l2.76,11.63c.1,.45,.32,.87,.63,1.22,1.64,1.85,7.14,8.44,9,15.25,.86,3.1-.71,6.36-3.67,7.63-2.07,.88-4.36,1.16-6.58,.8-.63-.11-1.26-.17-1.9-.16-2.86,.05-5.68,.73-8.25,2-1.58,.82-3.35,1.22-5.13,1.16-3.42-.06-8.17-.86-9.54-4.65-.46-1.26-.99-2.49-1.7-3.62-1.66-2.65-4.22-7.96-3.93-15.21,.1-2.57-.5-5.1-1.63-7.41Z" fill="#f69074" stroke="#002346" stroke-miterlimit="10"></path>
  <path d="M673.18,617.98c-8.67,5-22.9,3.77-22.9,3.77l.18-.24c1.91-.47,3.67-1.44,5.09-2.8l1.88-1.76s2.57-4.37,8.83-.53c2.05,1.25,4.45,1.8,6.84,1.57h.08Z" fill="#002346" stroke="#002346" stroke-miterlimit="10"></path>
  <path d="M551.39,437.43s-7.47,14.37,2.9,12.14c0,0,1.15,.3,8.76-1.54,0,0,6.83-1.61,10.79,2.76,0,0,5.95,8.3,10.84,6.32,1.47-.67,2.46-2.1,2.57-3.72,.25-2.39,.33-6.31-1.86-6,0,.03-21.92-14.8-34-9.96Z" fill="#fff" stroke="#002346" stroke-miterlimit="10"></path>
  <path d="M356.35,170.96s69.23-23.25,97.21-76.59c2.92-5.46,4.4-11.58,4.29-17.78-.17-6.39-2.21-13.47-9.69-16.2-5.56-2.03-11.76-1.26-16.66,2.06-5.86,3.95-13.05,12.72-14.27,32.12-.03,.56-.83,.63-.96,.09-1.85-7.81-7.21-24.93-18.86-26.91-6.1-1-12.07,2.7-14.42,8.42-2.9,7.05-3.24,19.81,12.06,40.3,0,0,33,45,128.54,59.6" fill="none" stroke="#002346" stroke-linecap="round" stroke-linejoin="round"></path>
  <rect x="235" y="146" width="46" height="61" rx="23" ry="23" fill="#f1b2c0" stroke="#002346" stroke-miterlimit="10"></rect>
  <path d="M266.64,204s-.56-6.87,9-15.5c0,0,4.51-5.13,6.31-8.57,.24-.46,.81-.63,1.27-.39,.23,.12,.4,.34,.47,.59,.55,2.13,.58,5.74-2.64,10.61,0,0,23.47-4.63,23.88-.92,.01,.11-.02,.22-.09,.31-.4,.58-2.65,2.64-14.88,6,0,0,3.18,2.65,.45,4.9,0,0,3.41,2.76-.23,4.55,0,0,1.88,3.69-2.35,3.77,0,0-7.66,3.16-12.56,4.07-.02-.02-3.76-7.1-8.63-9.42Z" fill="#f1b2c0" stroke="#002346" stroke-miterlimit="10"></path>
  <rect x="571.77" y="96.6" width="45.66" height="68.59" rx="22.83" ry="22.83" transform="translate(81.6 458.79) rotate(-45)" fill="#f1b2c0" stroke="#002346" stroke-miterlimit="10"></rect>
  <path d="M569.67,122.66s18.87,3,24.77-5.66l-1.92-1.26c2.46-.3,4.74-1.43,6.47-3.2,0,0,9.81,4.62,10.53,10.61,0,0,1.91-5.67,0-10.61h11.92c.29,2.36-.13,1.72-.94,3.96,0,0,6.45,6.39,9.16,9.57,0,0,1.92-15.32-1.91-20.59h4.07c-2.12-1.6-3.69-3.81-4.52-6.33-1.05-3.02-2.5-5.88-4.31-8.52-4.99-6.82-14.77-15.88-28.55-6.48,0,0,0-5.51-9.34-2.87,0,0,4.55,1.19,5.51,3.11,0,0-9.1,.48-16,4.78,0,0-7.9,4.79-13.16,3.59,2.44,1.78,5.66,2.06,8.37,.72,0,0-6.59,6.78-6.96,13.26-.17,2.95-.69,5.86-1.86,8.57-1.44,3.35-3.54,7.16-6.02,8.52,0,0,5.27,.48,6.94-4.55,0,0-3.55,21.84,10.58,22.21,0,0-1.93-4.56-2.55-5.87,0,0,5.26,1.86,11.36-2.57-.04,.04-11.03-2.17-11.64-10.4Z" fill="#002346" stroke="#002346" stroke-miterlimit="10"></path>
  <ellipse cx="615.39" cy="112.54" rx="5.81" ry="9.27" transform="translate(-.4 222.86) rotate(-20.52)" fill="#f1b2c0" stroke="#002346" stroke-miterlimit="10"></ellipse>
  <path d="M593.5,169.5s24.49,12.19,39.19,16.57c1.31,.39,2.64,.68,3.99,.89,3.07,.47,9.6,1.6,13.59,3.2,.88,.36,1.89,.14,2.54-.56,1.7-1.83,4.76-6,6.5-13.51,0,0,12-27.79,33.21-15.25,0,0,16,7.91,3.67,30.89,0,0-19.89,41.7-46.15,33.59l-29.95-14.29s-23.6-9.53-34.6-14.53l8-27Z" fill="#f69074" stroke="#002346" stroke-miterlimit="10"></path>
  <path d="M577.52,401.96c-4.08,1.07-7.1,2.98-7.1,2.98-7.71-1.51-9.57,6.9-9.94,12.87-.22,3.57-1.46,7.02-3.72,9.8-4.34,5.33-9.69,13.76,.29,13.29,0,0,11.9-1.62,17,3.68,0,0,15,12.91,15.48-2.76,0,0,.58-7.48,5.54-18.43,5.53-12.22-.3-9.61-.3-9.61,0,0-.04-.57-.24-1.47-1.64-7.64-9.45-12.32-17.01-10.34Z" fill="#f69074" stroke="#002346" stroke-miterlimit="10"></path>
  <line x1="568.4" y1="176.9" x2="577.5" y2="174.5" fill="none" stroke="#002346" stroke-linecap="round" stroke-linejoin="round"></line>
  <line x1="568.4" y1="182.77" x2="579.08" y2="180.27" fill="none" stroke="#002346" stroke-linecap="round" stroke-linejoin="round"></line>
  <line x1="574.38" y1="188.2" x2="581.5" y2="186.5" fill="none" stroke="#002346" stroke-linecap="round" stroke-linejoin="round"></line>
  <g>
    <ellipse cx="236.22" cy="141.96" rx="11.53" ry="11.72" transform="translate(-14.07 26.59) rotate(-6.26)" fill="#002346" stroke="#002346" stroke-miterlimit="10"></ellipse>
    <ellipse cx="243.73" cy="148.35" rx="8.87" ry="9.02" transform="translate(-14.72 27.45) rotate(-6.26)" fill="#fbe493" stroke="#002346" stroke-miterlimit="10"></ellipse>
    <path d="M272.69,160.41c-2.25,2.26-7.22,5.88-17.05,7.74,0,0,1.18,6.31-6,12.76-2.08,1.87-3.48,4.44-3.79,7.26-.5,4.47-1.74,13.6,6.25,18.01,0,0-4.58,.53-11.81-1.07,0,0-3.88,4.92-11.15,5.35-2.99,.18-5.91-1.36-7.37-4.02-1.95-3.55-3.32-10.12-.21-22,0,0,6.05-41.32,29.29-43.87,0,0,10.52-2.87,20.2,1.09,9.76,3.99,15.94,15.29,9.78,27.6l-1.41-2.05c-1.56-2.68-1.86-3.21-2.85-5.9-.1-.27-.25-.52-.43-.74h0c-.91-1.07-2.46-1.16-3.45-.17Z" fill="#002346" stroke="#002346" stroke-miterlimit="10"></path>
  </g>
  <ellipse cx="235.4" cy="182.76" rx="6.06" ry="7.98" fill="#f1b2c0" stroke="#002346" stroke-miterlimit="10"></ellipse>
  <path d="M240.38,233.47c-1.02,1.02-2.67,1.01-3.69,0-.08-.08-.15-.16-.22-.25-1.38-2.12-2.3-4.5-2.71-7,0,0-.35-7.76-8.14-14.33-5.16-4.35-13.07-3.15-16.43,2.7-3.03,5.26-4.76,14.14-.74,28.96,0,0,5.49,22.54,26.27,27.58,3.83,.95,7.89,.34,11.28-1.68,4.54-2.72,10.91-8.34,16.3-19.78,0,0,9.37-20.24,17.64-26.29,1.21-.9,1.63-2.52,1-3.89-3.13-7-12.09-24.94-18.52-16.66-.04,0-15.29,23.99-22.04,30.65Z" fill="#fbe493" stroke="#002346" stroke-miterlimit="10"></path>
  <line x1="289.96" y1="196.13" x2="281.23" y2="197.82" fill="none" stroke="#002346" stroke-linecap="round" stroke-linejoin="round"></line>
  <line x1="290.41" y1="201.03" x2="283.29" y2="202.01" fill="none" stroke="#002346" stroke-linecap="round" stroke-linejoin="round"></line>
  <line x1="290.18" y1="205.58" x2="284.42" y2="206.11" fill="none" stroke="#002346" stroke-linecap="round" stroke-linejoin="round"></line>
</svg>
