<svg xmlns="http://www.w3.org/2000/svg" viewBox="0 0 1000 1000" id="love-letter"><defs><clipPath id="a"><rect width="410.81" height="406.55" x="312.16" y="364.55" fill="none"></rect></clipPath><clipPath id="b"><rect width="535.09" height="451.43" x="280.01" y="503.81" fill="none"></rect></clipPath></defs><g data-name="Layer 1"><path fill="#700b13" d="M480,740.6c-51.81-2.61-99.37-27.92-142.62-54.73C321.11,675.72,298.52,666,288.68,649c-12.44,2.6,3-16.4,4.15-20.64q46.68-86.49,93.37-173l61.88-114.64c9.49-14,13.21-38.15,33.86-38.29,11-1.05,18.45,9.11,27.33,14.12l31.45,22L760.67,492.52l15.54,10.88c3.09,3.07-.31,7.84-2.38,10.64-24,29.86-51.42,56.7-77.94,84.24C636.79,653.63,566.06,736.92,480,740.6Z"></path><path fill="#ff9ea7" d="M884.31 327.46c-4.76 16.12-45.68 37.11-60.54 47.32-7.43 4.68-15.68 7.93-23.07 12.66-3.09 2.25-2.2 6.58-4 9.59-5 7.37-15.55 1.26-18.38-5.16-2.58-3.88.81-7.24 1-10.86-2.9-14.34-7.33-28.38-9.29-42.9 0 0 0 .05 0 .07-3.2-26.77 13.36-16.57 22.91-1.87 2.58-17.06 6.55-59.86 17.82-71.76 8.8-2.5 10.83 10.41 11.72 16.64 0 0 0-.08 0-.12a163.77 163.77 0 011.15 16.71c6.87-9.44 11.61-20.82 20.14-28.89 17.55-5.33 3.56 27.63 1.54 35 41.19-30.34 38-6.05 14.39 22.82C865.47 325.25 883.26 318 884.31 327.46zm-98.16 69.35a1.78 1.78 0 00-.12.6A2 2 0 01786.15 396.81zM249.91 500.86c2.11 8.77-9.33 28.71-17.15 32.1-25.65.08-43-20.47-63.12-33.17-4.42-2.37-9-5.36-14.19-5.26-8.16-.61-28.09 2.8-27.26-9.76 2.45-6.92 21.43-10.6 20.13-17.22-10-5.77-39.67-10.11-39-24.29 4.45-11.48 20.83-8.31 30.45-12.38-5.52-7.07-12.82-12.79-17.31-20.71-4.28-6.08-9.58-21.63 3.16-19.85 12.48 4.84 23.48 13.15 35.29 19.28-1-8.59-4.5-17.21-3-26 .72-6 7.65-10.1 12.22-5 14.76 15.68 21 37.33 34.45 53.92.76-9 10.2-29.42 18.21-13.47 5.77 16.18 6.47 33.65 10.68 50.24a53.26 53.26 0 005.77 15.19C242.5 490.16 248.18 494.4 249.91 500.86z"></path><path fill="#301ca3" d="M707.94 494.38c-7.63-.26 14.23-24.11 15.65-27.69 15.42-21.55 32.55-41.78 48.42-63 4-3.77 2.88-6 0-10.12-3.55-5-4.09-13 1.93-16.34 2.42-.47 0-3-.39-4.57-7.74-16.78-13.93-35.49-12.48-54.18 2.15-20.58 21.35-9 28.6 1.75a88.92 88.92 0 012-24.67v0c3.63-14.28 8.19-29.89 19.4-40.11 16.44-13 23.73 11 21.63 24.06 5.93-8.25 11.9-17.28 20.6-22.82 18.23-3.86 8.62 24.87 4.7 33.52 38.07-31.61 43 .23 17.81 27.51 13.75-5.25 30.8 2.56 17 17.26-19.36 17.06-44.19 27-66.77 39.1-7.12 4.47-18.66 6.22-21.57 14.94-.06 9-5.43 17.4-14.84 18.58-2.8.09-9.08 1.73-9.4-2.23.75-3.34 9.48-.13 12.75-2.92 18-13.12-8.52-15.19 33.48-33l-.13.06c20.64-10.8 42.2-20.62 60.9-34.62 15-12.83 1.33-18-11.82-12.91l.12 0-.25.08.12 0c-16.85 6.19 1.38-10.54 3.89-15.27 6.15-6.76 16.15-32.64-2.39-24.16-8.62 4.21-16.19 10.16-23.09 16.74-7.65 1.77 2.9-13.67 3-17l-.06.16.09-.24 0 .08c1.57-5 7.4-22.22-1.28-22.27l.26-.05a4.25 4.25 0 00-.85.22l.25-.08c-7.8 5.12-13.21 13.28-18.65 20.72-3.46 6.42-9.79 13.79-8 .65v.05c0-.08 0-.17 0-.26a1.11 1.11 0 010 .19c1.77-9.76-1.35-34.28-15.57-22.55-9 8.83-13.07 21.53-16.5 33.38a89.85 89.85 0 00-2.94 25.85c0 3.13 1 6.25.73 9.35-1.37 3.17-4.4.47-5.29-1.64l0 .05c-3.85-5.4-8.27-10.8-14.25-13.91l.23.12-.43-.22h0c-13.8-5.8-9.57 18.17-8.42 25.48 2.25 13.11 7.18 25.44 12.64 37.47.57 1.59.65 3.69-.84 4.8-11.46 4.3 1.77 14 1.08 20.91C756.51 432 730.6 461 709.68 493.41h0A2 2 0 01707.94 494.38zM340 589.3c-21.86-14.42-44.19-28.11-65.85-42.85-6.89-6.14-21.08-10.36-21.67-20.64-1.87-11.94 13-30.5-2.3-36.43-12.86-4.69-16.76-44.15-21.31-57.52-2.91-6.81-2.86-28.76-11.8-28.63-10 .1-11.25 22.43-21.24 8.75-12.58-16.81-27.13-57.23-48-63.3l.16-.05c-10.18 7-3 24.29.41 33.68.51 3.94 11.73 18.14 4.09 18.34-15.06-7.95-28.69-19.71-45.73-23.42l.26 0c-2.49-.44-5.33-.1-7.22 1.72l.18-.18c-5.85 9.66 6.74 22.66 12.88 29.68l-.18-.17c2.07 4 27.76 19.79 18.18 22.05-11.58-1.57-23.95-4.91-35.5-1.26-14.13 6.52-.9 21.51 8.17 25.92l-.08 0c10 6 21.12 9.81 32.32 12.92l-.25-.07c19.82 6.66-16.06 11.33-18 18.39v0s0 0 0 .06h0c.18 16 27.71 10.48 38.25 11.95 12.27 2.2 21.52 11.66 31.73 18.14 6 3.94 12.26 7.59 19.3 9.26 5.11 1.62 10.87 1.42 15.62 4 4.06 2.21 4.83 8 9.22 9.51 4.94 1.3 9.79-1.51 13.56-4.48 1.85-1.74 4.62 1.32 2.63 3-5.43 4.48-14 8.39-20.41 3.75-3.28-2.4-4.2-7.13-8-8.9-23-2.92-35.49-14.15-53.94-26.38-11.36-7.82-25.57-1.57-38-5.39-7.87-1.65-18.3-9-12.51-17.86 5.35-6.12 14.08-7.3 21.09-10.73-11.49-3.13-22.91-6.93-33.26-12.92l.22.13c-11-5.22-26.11-21.6-12.43-31.93 10.46-6.32 24.35-3.65 35.81-1.62-9.4-8-19.32-15.82-26-26.37-7.25-9.55-10.29-28.14 7.14-26l-.26 0c15.69 3.3 28.92 13.11 42.41 21.25-5.15-10.89-10.65-22.35-10.57-34.65-.69-10.89 7.82-20.9 17.71-11.56 20.92 16.52 28.47 43.47 44.47 63.67l-.21-.15c2.45 1 5.25-8.23 8.6-9.65 8.31-6.83 17.23-.94 18.33 8.84 4.49 18 8.4 36.21 13.2 54.17 5.56 29 18.42 16.74 20.1 32.35-.57 9-4.39 17.49-4.88 26.49-.58 8.46 9.95 11 15.18 15.84 23.17 16 47.23 30.64 70.71 46.16h0C344.61 587.46 342.19 591 340 589.3z"></path><g clip-path="url(#a)"><path fill="#df1929" d="M363.07 598.65c2.2 3.66-3.65 7-5.73 3.29-1.75-4-6.85-8.16-5.4-12.7a3.34 3.34 0 014.88-.92C359.2 591.5 360.74 595.37 363.07 598.65zM376.22 458.61c.41 3.19-3.21 3.52-4.89 5.41a104.71 104.71 0 00-8.85 8.65c-19.67 22.8-29.58 55.16-20 84.42 1.37 4.62 2.78 9.25 4.58 13.73 1.65 3.91-4.51 6.51-6.11 2.51-13.11-29.77-11.46-64.94 7.09-92.07C350.83 476.35 372.06 447 376.22 458.61zM388.55 631.06c3.06 3-1.73 7.74-4.7 4.64C381 632.29 366.92 620 371.05 616 375.79 611.14 383.68 628.51 388.55 631.06z"></path><path fill="#ff9ea7" d="M341 573.33c-8.7-21.24-12.07-45.35-4.64-67.47 7.08-19.05 18-39.9 36.18-50.13a3.33 3.33 0 013.68 2.88c.41 3.18-3.21 3.53-4.89 5.41-23.39 20.39-36.94 52.93-31.18 83.86h0a165.81 165.81 0 007 23C348.76 574.75 342.6 577.32 341 573.33zM363.07 598.65c2.2 3.66-3.65 7-5.73 3.29-1.75-4-6.85-8.16-5.4-12.7a3.34 3.34 0 014.88-.92C359.2 591.5 360.74 595.37 363.07 598.65zM386.15 636.68c-2.77.2-19.92-18.6-15.1-20.65 5.45-3.94 9.19 7.7 13 10.43C386.78 629.19 393.56 635.13 386.15 636.68z"></path><path fill="#df1929" d="M722.71,448.85c-1.73,85.23-45.82,176.88-89.44,248.89-13.57,21-26.34,42.61-43,61.34-7.88,7.76-7.86,14.81-20.7,10.55-24.21-6.83-46-20.13-68.75-30.48-43.89-20.5-85.17-46.79-119.59-81.1-24.83-24.49-49.77-51.13-62-84.38-16-39.6-2.15-110.95,37.51-132.06,32-17.55,71.51-22.28,106.81-13,16.25,5.7,31.57,15.87,43.71,28,17.79-33.38,52.62-69.49,88.49-82.79C656.94,348.79,723.38,377.18,722.71,448.85ZM388.52,635.73c3.3-3.76-2.58-6.52-4.48-9.27-3.8-2.74-7.53-14.36-13-10.43-3.23,4.34,3.8,8.44,5.73,12.05C379.9,630.83,383.67,639.15,388.52,635.73Zm-14.87-173.5c4-.77,3-7.08-1.11-6.5-7.52,3-12.87,10.45-18.19,16.37-23.22,29-28.49,67.25-13.35,101.23,1.6,3.95,7.76,1.45,6.11-2.51-1.8-4.48-3.21-9.11-4.58-13.73C331.51,523.11,346.21,484.05,373.65,462.23Zm-11.8,140.93c3.91-2.53-.26-6.45-1.66-9.24-1.72-2.18-2.26-6.66-5.8-6.28-4.81,1-2.3,6-.48,8.64C355.91,598.94,357.47,605.27,361.85,603.16Z"></path></g><path fill="#301ca3" d="M531.71 531.16c-2.9-2.6 6-9.51 7.17-12.77l0 .06.15-.21 0 0c6-10.35 15.94-24.45 10.07-36.51-6.22-1.47-11.24 7-15.52 10.66-8.54 9.48-16.26 20.65-18.08 33.54h0a2 2 0 01-2.23 2.24c-4.8-2.39 1.89-14.2 3.17-18.12 3.89-8.42 9.9-15.6 16.11-22.4 10.45-12.73 24.84-16 21.9 5.47-1.6 10.48-7.27 19.85-13 28.59a.61.61 0 00.07-.1C539 524 535.51 532.86 531.71 531.16zM578 521.5c-5.19-3.39 2-10 2.88-14.35 4.42-10.16 9.57-20 16.63-28.63 4.23-5.81 35.17-39.77 40.89-30.57 2.25 4.3-9.55 7.77-12.26 11.21-13.41 10.63-25.31 23.6-33.53 38.68 5-4.82 41.34-40 45.64-32.12 2.06 4-3.29 5.49-5.68 7.42a219.46 219.46 0 00-23.08 17.77 293.27 293.27 0 00-21.72 21.61C584.28 515 583.07 522.77 578 521.5zM394.62 490.4l.24 0h0l.06 0zm70.32 35.39c-19-7.27-40.17-6-60.2-7.28-4.93-1.2-19.37 3.33-20.1-3.16-1.79-7.64 50.44-1.27 57.17-1.29-4.64-2.37-9.28-4.75-13.93-7.09l.38.19c-9-4.52-18.23-8.7-27.52-12.66-3.23-1.67-7.49-2.66-9.4-6a3.41 3.41 0 013.08-4.71c2.08-.09 2.89 2.15 4.75 2.7 20.25 8.7 39.93 18.57 59.47 28.74 2.93 1.53 5.9 3 8.85 4.51C470.75 521.57 468.56 526.9 464.94 525.79z"></path><path fill="#301ca3" d="M500.55 575.17c-16.86-1.81-35.65-4.31-48.52-16.35-2.44-2.81-7.59-8.79-2.77-11.57 3.63-1.46 4.39 2.57 5.8 4.82 15.6 17.14 49.07 18 70.81 15.92 21.45-3 42.67-13.2 57.75-28.8a95.35 95.35 0 0013.77-16.74c1.66-2.3 3.32-6.7 6.86-4.75 5.85 3.16-8.33 17.14-10.73 20.74C570.83 564.82 535.09 578.57 500.55 575.17zM611.19 501.27c-6.34-7.25 16.54-19.39 22.66-20.83 4-1.29 27.81-7.38 28-1.61.45 2.9-16.51 1.69-20.18 3.54-10.21 2.59-21.77 6.74-27.53 16.14C613.66 499.88 613 501.79 611.19 501.27zM397.27 549c5.51-15 25-21.27 39.73-21.91h0l.27 0h-.05c.67 0 1.34.07 2 .13h-.09c2.95-.59 28.08 6.32 16.86 8.88-5.5-2.4-11.22-4.54-17.26-4.94h0l-.17 0h.08c-13.34-.37-28.48 5.05-36.55 16.08l.08-.13c-1.08 1.28-.8 3.85-2.95 3.87A2 2 0 01397.27 549z"></path><path fill="#fff" d="M568 475.51c.19-11.11 8.21-20.7 16-28 3.06-1.86 9.54-10.17 12.64-5.67.59 2.41-2.32 2.46-3.65 3.61-7.2 5.12-13.72 11.51-17.9 19.37-1.46 3.18-3.22 6.55-3.12 10.13C572.35 477.5 568.38 478.07 568 475.51zM479.41 491.29A107.37 107.37 0 00471 479.83l.17.19-1.61-1.83.17.19a46.11 46.11 0 00-8.58-7.63l0 0c-3.2-.89-4.71-5.22-.33-4.72 4.62 2.31 8.43 5.95 11.87 9.74l-.17-.19C474.4 477.39 489.82 495.94 479.41 491.29z"></path><g clip-path="url(#b)"><path fill="#ff9ea7" d="M329.69 955.15c-18.55-4-16.4-19.9-18.31-34.89Q307 882.13 302.69 844q-11-96.59-22-193.16c-.16-3.44-1.95-9.53 3.3-9.33l-.12 0c93.69 14 188.71 32.44 281.78 44.25L708.74 562.4q31.38-27.06 62.77-54.11c9.31-9.32 9.27-.36 9.89 8.06l24.87 239.82c6.14 102.38 31 88.17-45.09 104.54C617.24 891.23 474 927.64 329.69 955.15zM809.26 849.77h0zM809.76 849.35h0zM815 840.7v0zM815 840.64s0 0 0 .05z"></path></g><path fill="#301ca3" d="M342.85 931.12c-2.34-3.89 16.87-19.75 19.79-24.61q20.58-22.72 41.21-45.41L556.78 692.6c9.8-2.38-4.85 10.83-6.38 12.92l-155 170.84-40.76 44.91C351.51 923.44 346.29 933.56 342.85 931.12zM792 836.24L566.65 694.79c-2.11-1.31-.08-4.77 2.13-3.35L739.52 798.61l48.25 30.29c2.14 2.12 8.23 3 7 6.73A2 2 0 01792 836.24z"></path><path fill="#df1929" d="M605.22,773.19c.83,15.34-7.76,30.29-16.5,42.25-3.3,2-7.23-2.87-10.36-4.07-8.11-5.12-16.33-11.13-20.79-19.85v0c-10.05-16.75,8.39-30.94,21.49-16.39C582.69,763.29,602.9,757.69,605.22,773.19Z"></path><path fill="#ffccd1" d="M312 781.34c-4.28-38-11.15-75.67-15.75-113.6-.06-4.66 7.32-4.74 7.27 0 3.17 27.82 8.52 55.37 11.89 83.18 1.28 9.81 2.49 19.64 3.8 29.45C319.86 785 312.61 786 312 781.34zM318.26 825c-.71-4.74-1.65-9.48-2-14.26 0-4.7 7.31-4.7 7.27 0 .15 2.08.52 4.14.82 6.19.34 2.37.72 4.73 1.11 7.09C326.15 828.66 318.89 829.7 318.26 825z"></path><path fill="#ff9ea7" d="M794.83 81.57c-2.62-1.68-4.71-6.26-1.35-8.26C800.23 70 803.29 84.85 794.83 81.57zM141.85 246.21c-4 15.65-6.17 13.55-16.82 3.77-1.62-2.67-10.7-6.48-6.55-9.61-2.93-7 10.12-10.32 15.28-9.23C138 234.68 140.41 241 141.85 246.21zM263.09 136.4c-.15 7.66-2.66 15.55-3.52 23.3-2.84 13.24-7.54-.43-9.53-5.62-.93-2.24-1.77-4.5-2.7-6.74a2.16 2.16 0 01-1.76-3c2.06-3.9 2.79-12.74 8.95-11C257.35 134.23 261.45 133.44 263.09 136.4zM451.3 53.44c2.64.05-7 30.19-9.27 30.51-5.1 2.33-13.66 1.33-12.95-5.91l0 .11-.09-.64c0 .09 0 .19 0 .28-1.23-11.43-3.73-14.87 4.05-24.42 1.64-2.73 4-6.71 7.63-4.37C444.08 50.83 448.31 51.06 451.3 53.44zM524.23 175.31c1.75 21.4-8.52 8.39-15.55-.6-1.56-5 .95-10.5.44-15.68.88-4.87 12.09-2.52 14.13.84C524.63 164.79 523.72 170.22 524.23 175.31zM355.93 358.09c2.05 6.05-12.89 6.58-17 8.26-7.85 1.66-3.19-7.11-1.87-10.87 1.32-1.79.11-4.21 1.88-5.56 4.19-2.35 11.54-7.24 16-4.22C356.53 349.5 355.35 354 355.93 358.09zM155.16 574.81c1.75 3.21-1.8 6.4-3 9.27-4.21 7.58-7.91 19.69-12.74 4.18-.58-3.54-6.76-12.87-4.78-14.53C142.1 565.87 147.85 568.66 155.16 574.81zM536.46 286.2c.52 2.76-9.07 17.27-12.07 14.69a31.65 31.65 0 01-7.93-12.16c.25-3.92.86-9.54 4-11.87h-.07C533.17 269.56 534.09 273.3 536.46 286.2zM670.45 272.8c-.33 3.69-3.08 6.7-4.18 10.2-1.4 2.62-1.8 9-6.12 7.07-5.36-5.87-11.84-12.41-15-19.61-2.4-3.13 5.94-8.71 8.18-10.71C656.22 256.66 670.16 269.87 670.45 272.8zM724.87 81.81c-1.76 5.57-8.93 28.79-12.75 11.62-1.31-7.8-4.2-16-4.39-23.69 2.1-4.3 9.06-8.61 10.76-1.39C720.2 73 724.3 76.75 724.87 81.81zM905.14 372.47c.26 9.55-11.55 19.54-16.34 27.68-2.35 2.29-3.42-.36-4.33-1.81-2-2.28-5.08-3.87-6.37-6.68-.78-6.26 1.43-13 3.86-18.68C889.44 365.08 898.27 362.05 905.14 372.47zM844.92 630.75c-2.36 7.3-6.14-2.36-7.18-5.23-2.37-4.92-6.67-8.44-10-12.68-1.27-1.72-2.62-3.37-3.88-5.08-2.42-.35-2.18-3.18-.79-4.6 5.41-9.84 8.15-10.94 18.23-5.49C846.88 607.36 843.54 620 844.92 630.75z"></path><path fill="#301ca3" d="M237.56 330.12c6-2.1 10.4-7.61 13.38-13 4.58-6.21-6.33-4.91-9.49-2.44C236.7 317.17 229 328 237.56 330.12zM291.92 388c-3.93-5.29-7.79-10.63-11.48-16.09l0 0c-6.86-10.4-13.46-21.27-17-33.29-2.18-7.6-1.83-16.43-7.72-22.44-11.15 25.88-34.19 20.09-22.75 1.06 4.4-6.37 13.35-11.05 20.83-7.36 6.15-15.9-2.71-38.76-21.14-40.47-12.92-.08-27.44 8-32.39 20.24 0 6.41-6.34 2.2-3.2-2.93 3.21-7.32 9.86-12.48 16.66-16.32 27.88-17.23 53.82 13 43.87 40.63 6.92 11.37 6.88 12 9.59 26.25 3.4 11.76 9.95 22.33 16.61 32.5l-.14-.21C284.53 372.15 302.6 392.32 291.92 388zM284.21 433C281.85 429.68 262 411.18 266 409c3-2.37 11.6 12.07 14.72 14.31 2.05 2.32 4.1 4.65 6.31 6.83C288.84 432 286 434.82 284.21 433zM295.3 421.14c-3.54-5-8.55-9.46-10.6-15.25 1.4-4.57 4.22-.45 5.33 1.88 2.63 3.77 5.53 7.35 8.41 10.94C300 420.72 296.86 423.18 295.3 421.14zM186.25 668c3.54-.49 8.48-2.14 8.59-6.37v.09c-3.16-6.35-11.93-3.37-16.93-1C178.46 664.76 182 668.42 186.25 668zM140 703.22c-4.38-2 .94-9.34 2.1-12.38 7.53-13.24 18.43-24.93 31.7-32.52 1.29-14.89 12.15-27.67 24-36l-.14.09c12.07-8.24 27.58-14.4 42.31-11 2.44.6 8.64 2.52 5.79 5.82-1.3 1-2.44-.08-3.49-.82-12.9-5.2-27.55.48-39 7l.21-.15-.23.16.13-.09-3.49 2.35 0 0c-10.37 7.28-19.57 18-22 30.74 7.39-4.79 25.13-2.22 19.7 9.5-5.51 8.9-21.22 7.88-23.39-3.21a83.68 83.68 0 00-29.42 31.5C142.69 696.49 143.4 703.16 140 703.22zM836.56 453.69c2.35-.44 4.41-1.91 6.37-3.22C841.35 450.44 833.53 452.7 836.56 453.69zM881.62 475c-6.4-6.81-12.41-14.69-20.67-19.65l.21.15c-3.83-2.33-7.92-4.45-12.42-5-3.21 4.91-18.9 12.56-16.77 1.19 2.92-6.37 13.33-3.4 15.44-6.76 3.71-22.47-32-28.59-42-11.06l0 0c-8.88 6.37-2-14.08 21.05-14.34 13.53-.26 29.39 13 24.45 27.35 6.33 1.32 12 4.76 17.06 8.65C870.3 457.59 890.66 474.48 881.62 475zM714.46 297.34c-4.25-1.39 5.11-21.95 5.78-26.34h0l.09-.25-.05.14.23-.66 0 .05c.12-.33.23-.67.35-1l-.09.24c.17-.49.34-1 .52-1.49l-.06.17c1.85-3 2.88-13.45 7-12.66 3.36 2.19-3 10.56-3.35 14.11l.08-.24-.54 1.56.08-.24c-.11.33-.22.66-.34 1l.09-.24-.15.4.06-.15q-3.51 10.42-6.46 21C717.11 294.52 717.18 297.93 714.46 297.34zM723 300c-4-1.58 3.05-14.18 3.48-17.82 1.8-2.91 2.77-13.55 7.14-12.17 2.75 2.46-3 9.77-3.34 13.3C728.34 286.44 726.74 300.94 723 300zM607.35 168.54c5.59-.39 10.63-3.57 14.4-7.57 3-7.62-10.59-12.08-16.35-8.13C596.11 156.65 595.34 169.59 607.35 168.54zm-5.29 52c-1.7-1.8.66-3.33 1.78-4.62a120.19 120.19 0 007.61-10.35l-.14.21c8.14-11.8 13.86-26.49 12.23-41-8.48 10.63-34.63 11.29-28.31-7.35 5.36-11.73 25.16-14.31 30.41-1.23 8.38-11.72 14.22-25.75 13.17-40.37.9-3.67-3.7-14.37.74-15.17 3.53.76 2 7.16 2.92 10 2.35 18-4.1 35.66-15 49.77 1.62 16.06-2.58 33.43-12.4 46.91C612.26 210.32 606.33 223.12 602.06 220.58zM860.67 534.78c17-1.14 15.37-27-1.63-26S843.7 535.77 860.67 534.78zm-2 4c-21.91-1.88-20.18-34.29 1.79-34 21.17.92 21.53 32.76.34 34l.26 0A17.33 17.33 0 01858.7 538.73zM782.33 169.87c17-1.18 15.27-27.11-1.76-26S765.38 170.92 782.33 169.87zm-7.08 2.81c-14.9-5.29-13.69-28.48 1.71-32.17 14.57-4.64 27.6 13.5 18.61 25.86l.06-.09-.15.21.08-.11A17.1 17.1 0 01775.25 172.68zM397.6 222.73c17-1.19 15.29-27-1.69-26S380.61 223.77 397.6 222.73zm-6.86 2.89a15.58 15.58 0 01-1.62-.71l.12.06-.23-.11.11 0c-18.7-9.33-6.29-38.28 13.34-31.17C423.53 201.68 412 233.2 390.74 225.62z"></path></g></svg>